<svg viewBox="0 0 72 72" xmlns="http://www.w3.org/2000/svg"><g style="fill:none;stroke:#000;stroke-linecap:round;stroke-linejoin:round;stroke-miterlimit:10;stroke-width:2"><path d="m29.5835 39.6214c3.0581-6.8803 6.6525-14.6439 7.7996-16.8652 2.0717-4.012 5.7336-10.1903 12.5418-11.1943l-12.6613 30.5537"/><path d="m41.4622 50.9758c-1.1378-2.5493-3.3045-4.3145-5.7916-5.0337l1.593-3.8265-7.6801-2.4942c-2.5052 5.6398-4.8798 11.2159-5.0918 12.2646-.3613 1.7873-.6165 4.374.3383 6.5134 2.0499 4.5928 7.435 6.6542 12.0278 4.6044 4.5929-2.0499 6.6543-7.4351 4.6044-12.028zm-3.5499 4.7362c-.5596 2.4517-3.0009 3.9855-5.4525 3.4258-2.4517-.5597-3.9856-3.0008-3.4259-5.4525.5597-2.4518 3.0009-3.9856 5.4526-3.4259s3.9855 3.0009 3.4258 5.4526z"/><path d="m26.3726 38.2375c-.7838-2.3259-2.4964-4.3306-4.9143-5.4099-4.5928-2.0498-9.9779.0115-12.0279 4.6045-2.0499 4.5928.0116 9.9778 4.6044 12.0277 2.1394.955 4.7261.6996 6.5134.3384.2928-.0592.8983-.2697 1.7418-.5971m-3.541-3.9451c-2.4518.5597-4.893-.9741-5.4526-3.4259-.5597-2.4517.974-4.8928 3.4258-5.4525 2.4517-.5597 4.8929.974 5.4526 3.4257.5596 2.4518-.9741 4.893-3.4258 5.4527z"/><path d="m46.6251 30.3466 14.2472-5.9816c-1.004 6.8082-7.1823 10.4701-11.1943 12.5418-1.3118.6774-3.3115 1.6931-7.1655 3.463"/></g></svg>